<svg id="logo" xmlns="http://www.w3.org/2000/svg"  viewBox="0 0 100 100">
 <title>Loader Logo</title>
  <g>
      <g id="ND" transform="translate(2.000000, 2.000000)">
        <path
         d="M34.994,50.028V35.816l9.57,14.212h4.012V29.388H44.563V43.63l-9.57-14.242H30.981v20.64h4.012Zm24.608,0a12.446,12.446,0,0,0,6-1.283,8.139,8.139,0,0,0,3.492-3.6,12.144,12.144,0,0,0,1.144-5.44,12.147,12.147,0,0,0-1.144-5.44,8.122,8.122,0,0,0-3.507-3.6A12.465,12.465,0,0,0,59.6,29.388H52.647v20.64H59.6ZM56.659,32.779h2.734a8.268,8.268,0,0,1,4.027.826,4.643,4.643,0,0,1,2.1,2.374,9.972,9.972,0,0,1,.624,3.73,9.882,9.882,0,0,1-.624,3.7,4.641,4.641,0,0,1-2.1,2.374,8.262,8.262,0,0,1-4.027.826H56.659V32.779Z"
         fill="#7149c6"/>
      </g>
      <path
        fill="none"
        stroke="#7f55d9"
        strokeWidth="10"
        strokeLinecap="round"
        strokeLinejoin="round"
        d="M6.425,19.562l88.154-.152L50.656,86.591Zz"
      />
    </g>
</svg>
